<?xml version="1.0" encoding="utf-8"?>
<!-- Generator: Adobe Illustrator 16.0.0, SVG Export Plug-In . SVG Version: 6.00 Build 0)  -->
<!DOCTYPE svg PUBLIC "-//W3C//DTD SVG 1.1//EN" "http://www.w3.org/Graphics/SVG/1.1/DTD/svg11.dtd">
<svg version="1.1" id="Layer_1" xmlns="http://www.w3.org/2000/svg" xmlns:xlink="http://www.w3.org/1999/xlink" x="0px" y="0px"
	 width="466px" height="102px" viewBox="70.5 345.5 466 102" enable-background="new 70.5 345.5 466 102" xml:space="preserve">
<g id="_x35_41646ee-9581-4b10-a36e-c615e9892870" transform="matrix(2.3049526542999326,0,0,2.3049526542999326,89.54876319456906,97.2281101228536)">
	<path d="M56.235,129.754L56.235,129.754c1.455,0.394,2.618,1.095,3.488,2.101l0,0l0,0c0.87,0.993,1.306,2.142,1.306,3.448l0,0l0,0
		c0,1.196-0.469,2.325-1.408,3.386l0,0l0,0c-0.952,1.047-2.135,1.884-3.55,2.509l0,0l0,0c-1.414,0.639-2.761,0.959-4.039,0.959l0,0
		l0,0c-0.952,0-1.884-0.047-2.795-0.143l0,0l0,0c-1.523-0.095-2.706-0.143-3.55-0.143l0,0H42.2v-0.755l2.692-2.101V121.39
		l-2.937-0.999l0.469-1h3.244l0,0c1.727,0,3.427-0.061,5.1-0.184l0,0l0,0c1.292-0.068,2.244-0.102,2.856-0.102l0,0l0,0
		c1.238,0,2.333,0.245,3.284,0.734l0,0l0,0c0.952,0.503,1.687,1.176,2.204,2.019l0,0l0,0c0.516,0.843,0.775,1.788,0.775,2.836l0,0
		l0,0c0,0.952-0.34,1.87-1.02,2.754l0,0l0,0c-0.68,0.87-1.551,1.618-2.611,2.244l0,0L56.235,129.754z M56.337,126.062
		L56.337,126.062c0-1.523-0.415-2.774-1.244-3.754l0,0l0,0c-0.83-0.979-2.06-1.469-3.692-1.469l0,0l0,0
		c-1.238,0-2.339,0.381-3.305,1.142l0,0v7.568h4.284l0,0c1.238,0,2.203-0.306,2.897-0.918l0,0l0,0c0.694-0.598,1.04-1.455,1.04-2.57
		l0,0H56.337z M52.808,140.199L52.808,140.199c1.401,0,2.53-0.354,3.386-1.061l0,0l0,0c0.843-0.721,1.265-1.666,1.265-2.836l0,0l0,0
		c0-1.523-0.449-2.754-1.346-3.692l0,0l0,0c-0.898-0.938-2.231-1.435-3.999-1.489l0,0l0,0c-0.136,0.027-0.319,0.041-0.551,0.041l0,0
		h-3.468v8.282l0,0c1.292,0.503,2.87,0.755,4.733,0.755l0,0H52.808z M72.82,140.831l-0.51,1h-7.752v-0.735l2.55-1.979v-8.67
		l-2.55-1.815v-0.734l4.753-1.734h0.938v13.647L72.82,140.831z M68.536,117.616L68.536,117.616c0.53,0,0.966,0.197,1.305,0.592l0,0
		l0,0c0.327,0.408,0.49,0.904,0.49,1.489l0,0l0,0c0,0.422-0.116,0.816-0.347,1.183l0,0l0,0c-0.244,0.381-0.551,0.68-0.918,0.898l0,0
		l0,0c-0.367,0.218-0.728,0.326-1.081,0.326l0,0l0,0c-0.503,0-0.932-0.204-1.285-0.612l0,0l0,0c-0.34-0.408-0.51-0.911-0.51-1.51
		l0,0l0,0c0-0.422,0.122-0.809,0.367-1.163l0,0l0,0c0.231-0.367,0.537-0.66,0.918-0.877l0,0l0,0
		C67.843,117.725,68.196,117.616,68.536,117.616L68.536,117.616z M79.471,138.689h7.324l1.224-2.305l0.714,0.245v5.712l-1.428-0.51
		H75.941v-0.938l9.731-11.057h-7.487l-1.142,2.04l-0.714-0.265v-5.426l1.428,0.51H89.12v0.938L79.471,138.689z M103.828,126.388
		L103.828,126.388c0.993,0,1.897,0.326,2.713,0.979l0,0l0,0c0.802,0.653,1.435,1.544,1.897,2.672l0,0l0,0
		c0.449,1.129,0.673,2.366,0.673,3.713l0,0l0,0c0,1.469-0.435,2.842-1.306,4.121l0,0l0,0c-0.87,1.292-1.972,2.319-3.305,3.081l0,0
		l0,0c-1.319,0.762-2.598,1.142-3.835,1.142l0,0l0,0c-0.802,0-1.543-0.177-2.223-0.53l0,0l0,0c-0.694-0.354-1.292-0.857-1.795-1.51
		l0,0l-1.204,1.775h-0.938v-20.645l-2.55-1.795v-0.755l4.733-1.734h0.959v12.852l3.937-3.121l0,0
		c0.612-0.15,1.353-0.224,2.223-0.224l0,0L103.828,126.388z M102.298,139.893L102.298,139.893c1.115,0,1.958-0.402,2.53-1.204l0,0
		l0,0c0.558-0.802,0.836-1.979,0.836-3.529l0,0l0,0c0-1.836-0.286-3.386-0.857-4.651l0,0l0,0c-0.571-1.265-1.374-1.897-2.407-1.897
		l0,0l0,0c-0.735,0-1.449,0.15-2.142,0.449l0,0l0,0c-0.694,0.286-1.557,0.904-2.591,1.857l0,0v5.141l0,0
		c0,1.088,0.401,1.993,1.204,2.713l0,0l0,0c0.802,0.734,1.951,1.102,3.447,1.102l0,0L102.298,139.893z M120.515,140.872l-0.51,1
		h-7.752v-0.755l2.55-1.958v-17.973l-2.55-1.795v-0.755l4.753-1.734h0.938v22.909L120.515,140.872z M132.143,126.409
		L132.143,126.409c1.238,0,2.339,0.326,3.305,0.979l0,0l0,0c0.979,0.666,1.741,1.557,2.285,2.672l0,0l0,0
		c0.558,1.129,0.836,2.366,0.836,3.713l0,0l0,0c0,1.469-0.442,2.85-1.326,4.141l0,0l0,0c-0.87,1.278-1.965,2.298-3.284,3.06l0,0l0,0
		c-1.333,0.762-2.618,1.143-3.855,1.143l0,0l0,0c-1.21,0-2.305-0.32-3.284-0.959l0,0l0,0c-0.979-0.653-1.748-1.544-2.305-2.673l0,0
		l0,0c-0.558-1.115-0.836-2.353-0.836-3.713l0,0l0,0c0-1.455,0.442-2.836,1.326-4.141l0,0l0,0c0.871-1.292,1.972-2.319,3.305-3.081
		l0,0l0,0C129.627,126.789,130.906,126.409,132.143,126.409L132.143,126.409z M130.491,128.632L130.491,128.632
		c-2.271,0-3.407,1.591-3.407,4.774l0,0l0,0c0,1.85,0.401,3.393,1.203,4.631l0,0l0,0c0.802,1.238,1.965,1.857,3.489,1.857l0,0l0,0
		c2.244,0,3.366-1.591,3.366-4.774l0,0l0,0c0-1.849-0.401-3.393-1.204-4.631l0,0l0,0
		C133.136,129.251,131.987,128.632,130.491,128.632L130.491,128.632z M150.585,126.409L150.585,126.409
		c0.761,0,1.646,0.109,2.652,0.326l0,0l0,0c0.993,0.218,1.721,0.462,2.183,0.734l0,0v4.223h-0.938l0,0
		c-0.761-0.952-1.632-1.7-2.611-2.244l0,0l0,0c-0.966-0.544-1.965-0.816-2.999-0.816l0,0l0,0c-1.822,0-2.734,1.591-2.734,4.774l0,0
		l0,0c0,1.85,0.401,3.393,1.204,4.631l0,0l0,0c0.789,1.238,1.938,1.857,3.447,1.857l0,0l0,0c1.061,0,2.557-0.809,4.488-2.428l0,0
		l0.857,0.979l-4.488,3.468l0,0c-0.707,0.136-1.544,0.204-2.509,0.204l0,0l0,0c-1.224,0-2.326-0.32-3.305-0.959l0,0l0,0
		c-0.979-0.653-1.748-1.544-2.305-2.673l0,0l0,0c-0.544-1.115-0.816-2.353-0.816-3.713l0,0l0,0c0-1.455,0.401-2.836,1.204-4.141l0,0
		l0,0c0.816-1.292,1.843-2.319,3.081-3.081l0,0l0,0C148.232,126.789,149.429,126.409,150.585,126.409L150.585,126.409z
		 M164.763,139.832l2.57,1.04l-0.53,1h-7.732v-0.755l2.55-1.958v-17.973l-2.55-1.795v-0.755l4.733-1.734h0.959V139.832z
		 M176.942,140.831l-0.469,1h-4.631l-5.508-7.508l5.386-4.59l-2.57-2.04l0.49-1h6.548v0.755l-6.773,5.732l5.059,6.712
		L176.942,140.831z M188.427,138.873L188.427,138.873c0-0.571-0.299-1.081-0.897-1.53l0,0l0,0c-0.599-0.448-1.537-1.006-2.815-1.673
		l0,0l0,0c-1.482-0.748-2.611-1.435-3.386-2.06l0,0l0,0c-0.789-0.626-1.183-1.367-1.183-2.223l0,0l0,0
		c0-0.694,0.286-1.428,0.857-2.203l0,0l0,0c0.558-0.775,1.238-1.435,2.04-1.979l0,0l0,0c0.816-0.53,1.577-0.795,2.285-0.795l0,0l0,0
		c0.83,0,1.809,0.109,2.937,0.326l0,0l0,0c1.115,0.218,1.931,0.462,2.448,0.734l0,0v4.345h-0.938l0,0
		c-0.653-1.224-1.38-2.176-2.183-2.856l0,0l0,0c-0.816-0.694-1.652-1.04-2.509-1.04l0,0l0,0c-0.639,0-1.149,0.177-1.53,0.53l0,0l0,0
		c-0.381,0.34-0.572,0.755-0.572,1.244l0,0l0,0c0,0.626,0.306,1.176,0.918,1.652l0,0l0,0c0.626,0.463,1.591,1.027,2.897,1.693l0,0
		l0,0c0.98,0.489,1.761,0.911,2.346,1.265l0,0l0,0c0.598,0.354,1.102,0.769,1.51,1.245l0,0l0,0c0.408,0.476,0.612,1.013,0.612,1.611
		l0,0l0,0c0,0.694-0.299,1.428-0.898,2.204l0,0l0,0c-0.585,0.775-1.299,1.428-2.142,1.958l0,0l0,0
		c-0.83,0.53-1.598,0.796-2.305,0.796l0,0l0,0c-0.911,0-1.999-0.116-3.264-0.347l0,0l0,0c-1.251-0.218-2.142-0.455-2.673-0.714l0,0
		v-4.284h0.938l0,0c0.666,1.224,1.469,2.169,2.407,2.836l0,0l0,0c0.952,0.666,1.904,0.999,2.856,0.999l0,0l0,0
		c0.666,0,1.204-0.17,1.612-0.51l0,0l0,0C188.216,139.757,188.427,139.349,188.427,138.873L188.427,138.873z"/>
</g>
<g id="_x32_86a91cf-034f-4f91-ba19-bfd65b393260" transform="matrix(0.43446308769526104,0,0,0.43446308769526104,37.54137362870491,128.29086279313756)">
	
		<linearGradient id="SVGID_1_" gradientUnits="userSpaceOnUse" x1="-85.2247" y1="1527.5775" x2="-84.2251" y2="1527.5775" gradientTransform="matrix(70.8126 37.1421 33.0205 -79.6515 -44322.6641 125397.3203)">
		<stop  offset="0" style="stop-color:#181B80"/>
		<stop  offset="1" style="stop-color:#181ED9"/>
	</linearGradient>
	<path fill="url(#SVGID_1_)" d="M281.188,560.586l-0.025-0.155c-0.036-0.23-0.085-0.46-0.148-0.686l-0.031-0.121
		c-0.092-0.307-0.209-0.606-0.348-0.895c-0.054-0.122-0.112-0.243-0.175-0.363c-0.038-0.065-0.083-0.126-0.121-0.191l-0.119-0.19
		c-0.13-0.202-0.272-0.397-0.427-0.581c-0.011-0.017-0.022-0.033-0.036-0.045c-0.175-0.205-0.362-0.399-0.56-0.582l-0.115-0.098
		c-0.175-0.152-0.36-0.294-0.551-0.428c-0.04-0.025-0.072-0.051-0.11-0.075c-0.223-0.149-0.456-0.283-0.699-0.4l-0.043-0.025
		l-83.632-40.169c-1.72-0.824-3.72-0.824-5.44,0l-83.634,40.168l-0.047,0.026c-0.238,0.118-0.468,0.25-0.69,0.393
		c-0.043,0.027-0.083,0.057-0.124,0.086c-0.187,0.128-0.364,0.266-0.533,0.414l-0.128,0.112c-0.198,0.178-0.382,0.369-0.553,0.57
		c-0.02,0.021-0.038,0.048-0.056,0.073c-0.196,0.24-0.375,0.496-0.533,0.763c-0.036,0.061-0.079,0.118-0.115,0.179
		c-0.063,0.112-0.112,0.229-0.169,0.343l-0.085,0.174c-0.106,0.238-0.196,0.482-0.27,0.732l-0.036,0.143
		c-0.061,0.22-0.108,0.441-0.144,0.663c-0.009,0.057-0.02,0.112-0.025,0.17c-0.038,0.269-0.058,0.538-0.058,0.81V664.74
		c0,2.284,1.239,4.388,3.237,5.498l83.632,46.38c1.899,1.047,4.201,1.047,6.098,0l83.634-46.378
		c1.998-1.108,3.237-3.212,3.237-5.496V561.419v-0.01C281.247,561.133,281.227,560.86,281.188,560.586z M191.328,703.931
		l-77.347-42.891v-88.948l41.028,22.752c3.037,1.685,6.862,0.589,8.548-2.448c1.684-3.037,0.587-6.864-2.45-8.548l-39.727-22.031
		l69.948-33.593l69.95,33.595l-39.724,22.028c-3.037,1.68-4.134,5.505-2.452,8.54c0,0.001,0.002,0.003,0.002,0.005
		c1.675,3.034,5.493,4.135,8.526,2.46c0.007-0.003,0.011-0.007,0.018-0.01l41.028-22.749v88.948L191.328,703.931z"/>
	
		<linearGradient id="SVGID_2_" gradientUnits="userSpaceOnUse" x1="-85.6517" y1="1526.8492" x2="-84.6513" y2="1526.8492" gradientTransform="matrix(18.9872 20.3164 8.8539 -43.5687 -11729.374 68869.2891)">
		<stop  offset="0" style="stop-color:#181B80"/>
		<stop  offset="1" style="stop-color:#181ED9"/>
	</linearGradient>
	<path fill="url(#SVGID_2_)" d="M197.658,617.434c-0.2-0.639-0.868-1.01-1.517-0.841c-3.178,0.82-6.516,0.814-9.692-0.019
		c-0.65-0.17-1.319,0.2-1.522,0.842l-17.649,56.423c-0.146,0.472-0.004,0.984,0.364,1.313l22.817,20.266
		c0.474,0.427,1.191,0.427,1.668,0.002l22.893-20.266c0.371-0.328,0.512-0.845,0.364-1.317L197.658,617.434z M174.798,593.447
		l10.346,17.739c0.169,0.288,0.445,0.498,0.766,0.583c0.346,0.09,0.692,0.192,1.043,0.29c1.369,0.393,2.785,0.8,4.374,0.8
		c1.533,0,2.895-0.394,4.212-0.775c0.375-0.106,0.749-0.216,1.124-0.312c0.335-0.088,0.618-0.31,0.784-0.614l9.733-17.803
		c0.337-0.71,0.643-2.335-0.36-3.925c-1.818-2.88-7.029-4.341-15.494-4.341c-8.546,0-13.911,1.477-15.952,4.386
		c-1.308,1.87-0.74,3.58-0.672,3.772C174.731,593.315,174.762,593.382,174.798,593.447z"/>
</g>
</svg>
